#!OML:ASF H:\ManfredETheater\Project 1\Capture day 1\Session 1\subject.ASF
:FULLY-SPECIFIED
:DEGREES
340
root -16.3729 15.8545 -45.6062 -150.637 -22.6623 180.186
lowerback 10.2609 -1.91896 2.85367
upperback -2.33376 -2.00958 3.54655
thorax -8.22337 -1.06261 2.51306
lowerneck -17.6463 1.27346 -2.5309
upperneck -9.92922 0.58638 -0.0418925
head -0.272575 -0.301697 0.437131
rclavicle 3.02153e-014 1.43125e-014
rhumerus -55.746 -3.34275 -83.2224
rradius 77.2154
rwrist -15.8119
rhand -31.3144 6.32908
rfingers 7.12502
rthumb -4.5867 -23.6013
lclavicle 3.02153e-014 1.43125e-014
lhumerus -47.9716 -21.3241 106.518
lradius 102.419
lwrist 10.1066
lhand -17.7593 -13.5323
lfingers 7.12502
lthumb 8.5026 16.2766
rfemur -58.5663 -4.86332 27.684
rtibia 74.6334
rfoot -33.7723 -17.0539
rtoes -39.9963
lfemur -23.2515 -6.0621 -19.2908
ltibia 68.9172
lfoot 5.45119 -12.8368
ltoes 8.86478
341
root -16.474 15.8528 -45.8815 -150.57 -22.6443 180.797
lowerback 10.0042 -1.71518 3.35677
upperback -2.37203 -1.68988 3.69731
thorax -8.13408 -0.935791 2.3279
lowerneck -17.7084 1.21939 -2.57748
upperneck -10.0004 0.503971 -0.216834
head -0.28572 -0.349209 0.386049
rclavicle -1.51076e-014 2.8625e-014
rhumerus -53.7189 -3.01678 -83.731
rradius 77.2037
rwrist -16.169
rhand -31.3291 6.3881
rfingers 7.12502
rthumb -4.60094 -23.5419
lclavicle -1.51076e-014 2.8625e-014
lhumerus -48.2042 -20.3635 106.101
lradius 98.7321
lwrist 10.7617
lhand -18.4334 -13.7039
lfingers 7.12502
lthumb 7.852 16.1303
rfemur -57.1419 -4.51468 28.1396
rtibia 73.8844
rfoot -34.5663 -17.4236
rtoes -40.2946
lfemur -26.3051 -5.1462 -18.4857
ltibia 73.0921
lfoot 4.39324 -10.7453
ltoes 7.54661
342
root -16.5752 15.8526 -46.1595 -150.501 -22.5901 181.349
lowerback 9.75388 -1.49977 3.76279
upperback -2.41908 -1.3698 3.83735
thorax -8.05167 -0.803889 2.18827
lowerneck -17.779 1.17623 -2.61427
upperneck -10.025 0.439671 -0.418967
head -0.282636 -0.386288 0.325684
rclavicle -4.37326e-015 3.18055e-015
rhumerus -51.7216 -2.4439 -84.3033
rradius 77.5524
rwrist -16.6306
rhand -31.3133 6.46169
rfingers 7.12502
rthumb -4.58568 -23.4687
lclavicle -4.37326e-015 3.18055e-015
lhumerus -48.4844 -19.3593 105.61
lradius 95.1294
lwrist 11.5113
lhand -19.1301 -14.0802
lfingers 7.12502
lthumb 7.17954 15.778
rfemur -55.6489 -4.16808 28.5284
rtibia 73.0433
rfoot -35.3206 -17.7658
rtoes -40.536
lfemur -29.4629 -4.12335 -17.7802
ltibia 77.1557
lfoot 3.13022 -8.5876
ltoes 6.03642
343
root -16.6776 15.8543 -46.4423 -150.423 -22.5028 181.859
lowerback 9.48125 -1.27714 4.09622
upperback -2.47644 -1.05311 3.96419
thorax -7.96306 -0.670043 2.07739
lowerneck -17.8531 1.15275 -2.62179
upperneck -10.0092 0.401162 -0.65246
head -0.266036 -0.410048 0.251846
rclavicle 1.11319e-014 -4.77083e-015
rhumerus -49.7825 -1.63647 -84.9252
rradius 78.3069
rwrist -17.1171
rhand -31.2161 6.58012
rfingers 7.12502
rthumb -4.49186 -23.3522
lclavicle 1.11319e-014 -4.77083e-015
lhumerus -48.9135 -18.3464 105.057
lradius 91.8233
lwrist 12.2519
lhand -19.7963 -14.6254
lfingers 7.12502
lthumb 6.53643 15.2538
rfemur -54.0892 -3.81434 28.8624
rtibia 72.11
rfoot -36.0297 -18.0852
rtoes -40.7527
lfemur -32.7131 -3.01172 -17.1688
ltibia 81.0392
lfoot 1.80831 -6.5773
ltoes 4.65255
344
root -16.7803 15.8573 -46.7301 -150.325 -22.3625 182.28
lowerback 9.19653 -1.0551 4.30413
upperback -2.54541 -0.754277 4.06349
thorax -7.87577 -0.538285 2.0124
lowerneck -17.9345 1.15434 -2.60055
upperneck -9.94878 0.396973 -0.900035
head -0.233824 -0.416016 0.170489
rclavicle -1.15295e-014 -1.74931e-014
rhumerus -47.9304 -0.615361 -85.5822
rradius 79.5041
rwrist -17.5353
rhand -30.9907 6.73196
rfingers 7.12502
rthumb -4.27415 -23.2049
lclavicle -1.15295e-014 -1.74931e-014
lhumerus -49.6005 -17.3561 104.456
lradius 89.0372
lwrist 12.8179
lhand -20.3958 -15.2414
lfingers 7.12502
lthumb 5.95765 14.6548
rfemur -52.4664 -3.44791 29.0863
rtibia 71.0942
rfoot -36.6735 -18.3873
rtoes -40.9826
lfemur -36.0433 -1.8417 -16.7126
ltibia 84.6918
lfoot 0.556152 -4.86373
ltoes 3.84105
345
root -16.8836 15.8614 -47.0237 -150.207 -22.156 182.625
lowerback 8.89619 -0.832236 4.39238
upperback -2.62483 -0.469592 4.12772
thorax -7.78816 -0.407 1.98115
lowerneck -18.039 1.17837 -2.55222
upperneck -9.84112 0.42485 -1.13348
head -0.182477 -0.405371 0.0906534
rclavicle 2.50469e-014 -2.22639e-014
rhumerus -46.1798 0.572357 -86.2666
rradius 81.157
rwrist -17.8179
rhand -30.6589 7.07584
rfingers 7.12502
rthumb -3.95372 -22.8672
lclavicle 2.50469e-014 -2.22639e-014
lhumerus -50.6341 -16.4523 103.823
lradius 86.973
lwrist 13.0685
lhand -20.9091 -15.9007
lfingers 7.12502
lthumb 5.46208 14.0089
rfemur -50.7807 -3.03393 29.1986
rtibia 69.9816
rfoot -37.2372 -18.7064
rtoes -41.3269
lfemur -39.451 -0.618326 -16.4167
ltibia 88.0642
lfoot -0.641208 -3.5311
ltoes 3.44259
346
root -16.9883 15.8687 -47.3248 -150.106 -21.91 182.922
lowerback 8.60077 -0.618468 4.41675
upperback -2.70375 -0.204059 4.15275
thorax -7.70198 -0.281366 1.94895
lowerneck -18.1611 1.22451 -2.46547
upperneck -9.70272 0.480637 -1.34577
head -0.117908 -0.380931 0.0124691
rclavicle -1.90833e-014 3.26007e-014
rhumerus -44.5453 1.85754 -86.972
rradius 83.2729
rwrist -17.9256
rhand -30.2032 7.54704
rfingers 7.12502
rthumb -3.51366 -22.4037
lclavicle -1.90833e-014 3.26007e-014
lhumerus -52.0628 -15.6976 103.159
lradius 85.7717
lwrist 12.8671
lhand -21.2407 -16.3732
lfingers 7.12502
lthumb 5.14194 13.5445
rfemur -48.9751 -2.58395 29.2304
rtibia 68.7425
rfoot -37.7051 -19.0362
rtoes -41.7719
lfemur -42.8812 0.610335 -16.2564
ltibia 91.107
lfoot -1.83171 -2.60433
ltoes 3.07974
347
root -17.0951 15.8818 -47.6363 -150.123 -21.6682 183.188
lowerback 8.39022 -0.426652 4.41847
upperback -2.75544 0.0352512 4.14122
thorax -7.63532 -0.166645 1.89709
lowerneck -18.3027 1.27709 -2.35231
upperneck -9.53632 0.546138 -1.51003
head -0.0405234 -0.350958 -0.0545573
rclavicle 9.14409e-015 -1.90833e-014
rhumerus -43.0474 3.17384 -87.6905
rradius 85.8358
rwrist -17.8743
rhand -29.6435 8.10134
rfingers 7.12502
rthumb -2.97313 -21.8577
lclavicle 9.14409e-015 -1.90833e-014
lhumerus -53.9078 -15.1641 102.507
lradius 85.4834
lwrist 12.363
lhand -21.4317 -16.7818
lfingers 7.12502
lthumb 4.95753 13.1402
rfemur -46.9065 -2.12859 29.2171
rtibia 67.3331
rfoot -38.0906 -19.3655
rtoes -42.2889
lfemur -46.1907 1.80437 -16.1897
ltibia 93.7666
lfoot -3.01092 -2.06187
ltoes 2.82683
348
root -17.2046 15.9006 -47.9572 -150.25 -21.3793 183.473
lowerback 8.25677 -0.224558 4.42323
upperback -2.7914 0.293741 4.09005
thorax -7.59585 -0.0425302 1.80055
lowerneck -18.4579 1.31432 -2.23531
upperneck -9.34393 0.597232 -1.60172
head 0.0479859 -0.325883 -0.100223
rclavicle 3.29983e-014 5.725e-014
rhumerus -41.7164 4.44831 -88.4169
rradius 88.8253
rwrist -17.7424
rhand -29.0325 8.74667
rfingers 7.12502
rthumb -2.38307 -21.2198
lclavicle 3.29983e-014 5.725e-014
lhumerus -56.1457 -14.9063 101.908
lradius 86.076
lwrist 11.7525
lhand -21.4193 -16.948
lfingers 7.12502
lthumb 4.96951 12.9737
rfemur -44.6001 -1.60859 29.1827
rtibia 65.7217
rfoot -38.3118 -19.7261
rtoes -42.9483
lfemur -49.3892 3.00885 -16.2018
ltibia 96.0219
lfoot -4.21255 -1.85524
ltoes 2.43246
349
root -17.3172 15.9262 -48.2876 -150.489 -21.0208 183.801
lowerback 8.20137 0.0102603 4.44329
upperback -2.81061 0.602374 4.00114
thorax -7.58217 0.105244 1.64931
lowerneck -18.6256 1.31878 -2.13125
upperneck -9.13252 0.612294 -1.62509
head 0.144986 -0.316145 -0.124223
rclavicle 2.46493e-014 2.94201e-014
rhumerus -40.5581 5.65021 -89.131
rradius 92.1843
rwrist -17.5944
rhand -28.4069 9.35664
rfingers 7.12502
rthumb -1.77893 -20.6157
lclavicle 2.46493e-014 2.94201e-014
lhumerus -58.6983 -14.9703 101.397
lradius 87.4285
lwrist 11.307
lhand -21.191 -16.9112
lfingers 7.12502
lthumb 5.18991 13.0052
rfemur -42.046 -1.00056 29.1426
rtibia 63.8536
rfoot -38.3455 -20.0321
rtoes -43.6429
lfemur -52.4571 4.2401 -16.2841
ltibia 97.8909
lfoot -5.48809 -1.93037
ltoes 1.72874
350
root -17.4336 15.9596 -48.6265 -150.81 -20.58 184.165
lowerback 8.20798 0.295552 4.47617
upperback -2.83431 0.98412 3.87284
thorax -7.60645 0.287367 1.43928
lowerneck -18.7591 1.27539 -2.04857
upperneck -8.90654 0.574338 -1.59509
head 0.24162 -0.32828 -0.13084
rclavicle 2.10712e-014 2.8625e-014
rhumerus -39.5968 6.74262 -89.8077
rradius 95.8502
rwrist -17.5017
rhand -27.7907 9.89688
rfingers 7.12502
rthumb -1.18378 -20.0796
lclavicle 2.10712e-014 2.8625e-014
lhumerus -61.5021 -15.3327 101.018
lradius 89.3778
lwrist 11.3477
lhand -20.7595 -16.7813
lfingers 7.12502
lthumb 5.60659 13.1246
rfemur -39.3076 -0.305847 29.0878
rtibia 61.7968
rfoot -38.1877 -20.2777
rtoes -44.3808
lfemur -55.4061 5.49786 -16.4568
ltibia 99.3362
lfoot -6.8091 -2.23741
ltoes 0.732843
351
root -17.5442 15.9843 -48.9711 -151.912 -21.0821 184.336
lowerback 8.85509 0.111654 4.83581
upperback -2.53277 0.813474 3.84862
thorax -7.65432 0.189997 1.23479
lowerneck -19.0216 1.38791 -1.88986
upperneck -8.78858 0.701602 -1.55253
head 0.323288 -0.271307 -0.136865
rclavicle 2.0276e-014 2.06736e-014
rhumerus -38.2011 8.10164 -90.4878
rradius 99.3162
rwrist -16.8077
rhand -26.6223 10.359
rfingers 7.12502
rthumb -0.0553067 -19.6207
lclavicle 2.0276e-014 2.06736e-014
lhumerus -64.2824 -15.3212 100.229
lradius 91.32
lwrist 8.87155
lhand -20.6249 -17.3408
lfingers 7.12502
lthumb 5.73653 12.5615
rfemur -35.4668 -0.392356 29.3931
rtibia 59.5201
rfoot -38.5385 -20.7176
rtoes -44.7852
lfemur -57.4102 5.89869 -16.1784
ltibia 100.632
lfoot -7.80108 -2.49186
ltoes -0.42554
352
root -17.6661 16.0104 -49.3054 -152.098 -19.7964 184.971
lowerback 8.8732 0.794706 4.75309
upperback -2.76754 1.72031 3.57215
thorax -7.89693 0.625202 0.851349
lowerneck -18.8488 1.1636 -1.90194
upperneck -8.57166 0.465508 -1.35645
head 0.368038 -0.361351 -0.0864566
rclavicle -1.27222e-014 -3.18055e-014
rhumerus -38.0347 8.61516 -91.2535
rradius 103.852
rwrist -17.339
rhand -26.0079 10.5708
rfingers 7.12502
rthumb 0.538108 -19.4083
lclavicle -1.27222e-014 -3.18055e-014
lhumerus -67.6575 -16.3732 100.354
lradius 94.3355
lwrist 11.5014
lhand -19.8821 -16.1782
lfingers 7.12502
lthumb 6.45363 13.7035
rfemur -32.9224 1.01648 29.1842
rtibia 57.193
rfoot -37.497 -21.0594
rtoes -46.0217
lfemur -60.5469 7.80236 -16.7301
ltibia 101.356
lfoot -9.3383 -3.2611
ltoes -2.15512
353
root -17.7862 16.0431 -49.6532 -152.023 -18.4511 185.589
lowerback 8.43605 1.57081 4.45421
upperback -2.93201 2.68963 3.34515
thorax -7.80235 1.1082 0.63952
lowerneck -19.0714 0.87907 -2.00533
upperneck -8.22485 0.158824 -1.23615
head 0.519737 -0.49684 -0.0494758
rclavicle -8.74653e-015 -9.54166e-015
rhumerus -37.5591 9.47577 -91.5972
rradius 108.095
rwrist -17.5592
rhand -25.6044 10.4262
rfingers 7.12502
rthumb 0.927827 -19.5516
lclavicle -8.74653e-015 -9.54166e-015
lhumerus -70.7002 -17.9561 100.693
lradius 97.1773
lwrist 15.2287
lhand -19.1021 -15.3978
lfingers 7.12502
lthumb 7.20663 14.4595
rfemur -30.6464 2.58916 28.9251
rtibia 54.8909
rfoot -36.661 -20.8197
rtoes -46.711
lfemur -63.9646 9.68614 -17.4168
ltibia 101.686
lfoot -10.6412 -4.12974
ltoes -3.14749
